<?xml version="1.0" encoding="utf-8"?>
<!-- Generator: Adobe Illustrator 24.1.2, SVG Export Plug-In . SVG Version: 6.00 Build 0)  -->
<svg version="1.1" xmlns="http://www.w3.org/2000/svg" xmlns:xlink="http://www.w3.org/1999/xlink" x="0px" y="0px"
	 viewBox="0 0 512 512" style="enable-background:new 0 0 512 512;" xml:space="preserve">
<style type="text/css">
	.st0{display:none;}
	.st1{display:inline;}
	.st2{fill:none;stroke:#1D1D1B;stroke-width:3;stroke-miterlimit:10;}
	.st3{fill:#1D1D1B;stroke:#1D1D1B;stroke-width:3;stroke-miterlimit:10;}
	.st4{display:inline;fill:none;stroke:#1D1D1B;stroke-width:3;stroke-miterlimit:10;}
	.st5{display:inline;fill:none;stroke:#1D1D1B;stroke-width:3;stroke-linecap:round;stroke-miterlimit:10;}
	.st6{display:inline;fill:none;stroke:#1D1D1B;stroke-width:2.5153;stroke-miterlimit:10;}
	.st7{fill:#FFFFFF;}
	.st8{filter:url(#Adobe_OpacityMaskFilter);}
	.st9{mask:url(#mask-2_2_);}
	.st10{fill:#66DDB7;fill-opacity:0.1;stroke:#65DCB7;stroke-width:0.5;}
	.st11{fill:none;stroke:#65DCB7;stroke-width:0.5;}
	.st12{opacity:0.3;fill:none;stroke:#65DCB7;stroke-width:0.5;stroke-linecap:square;enable-background:new    ;}
	.st13{opacity:0.3;fill:none;stroke:#65DCB7;stroke-width:0.2;stroke-linecap:square;enable-background:new    ;}
	.st14{display:inline;fill:none;stroke:#1D1D1B;stroke-width:7.9136;stroke-linecap:round;stroke-miterlimit:10;}
	.st15{fill:#1D1D1B;}
	.st16{fill:#E30613;stroke:#1D1D1B;stroke-width:10;stroke-linecap:round;stroke-miterlimit:10;}
	.st17{font-family:'EngraversMT';}
	.st18{font-size:136.3047px;}
	.st19{letter-spacing:-15;}
	.st20{font-size:120.3472px;}
	.st21{font-size:134.9403px;}
	.st22{fill:none;stroke:#1D1D1B;stroke-linecap:round;stroke-miterlimit:10;}
</style>
<g id="Capa_1" class="st0">
	<g class="st1">
	</g>
</g>
<g id="Capa_2" class="st0">
	<g class="st1">
		<circle class="st2" cx="135.97" cy="48" r="32"/>
		<line class="st3" x1="119.97" y1="32" x2="151.97" y2="32"/>
		<line class="st3" x1="151.97" y1="48" x2="119.97" y2="48"/>
		<line class="st3" x1="119.97" y1="64" x2="151.97" y2="64"/>
		<path class="st2" d="M139.45,69.28l-3.86,1.04c-3.2,0.86-6.49-1.04-7.35-4.24l0,0c-0.86-3.2,1.04-6.49,4.24-7.35l3.86-1.04
			c3.2-0.86,6.49,1.04,7.35,4.24v0C144.55,65.13,142.65,68.42,139.45,69.28z"/>
		<path class="st2" d="M139.45,53.28l-3.86,1.04c-3.2,0.86-6.49-1.04-7.35-4.24l0,0c-0.86-3.2,1.04-6.49,4.24-7.35l3.86-1.04
			c3.2-0.86,6.49,1.04,7.35,4.24v0C144.55,49.13,142.65,52.42,139.45,53.28z"/>
		<path class="st2" d="M139.45,37.28l-3.86,1.04c-3.2,0.86-6.49-1.04-7.35-4.24l0,0c-0.86-3.2,1.04-6.49,4.24-7.35l3.86-1.04
			c3.2-0.86,6.49,1.04,7.35,4.24v0C144.55,33.13,142.65,36.42,139.45,37.28z"/>
	</g>
	<circle class="st4" cx="48" cy="48" r="32"/>
	<line class="st5" x1="32" y1="32" x2="64" y2="32"/>
	<line class="st5" x1="64" y1="48" x2="32" y2="48"/>
	<line class="st5" x1="32" y1="64" x2="64" y2="64"/>
	<circle class="st6" cx="48" cy="64" r="6.71"/>
	<circle class="st6" cx="48" cy="32" r="6.71"/>
	<circle class="st6" cx="48" cy="48" r="6.71"/>
</g>
<g id="Capa_3">
	<rect class="st7" width="512" height="512"/>
	<defs>
		<filter id="Adobe_OpacityMaskFilter" filterUnits="userSpaceOnUse" x="63.75" y="63.75" width="384.5" height="384.5">
			<feColorMatrix  type="matrix" values="1 0 0 0 0  0 1 0 0 0  0 0 1 0 0  0 0 0 1 0"/>
		</filter>
	</defs>
	<mask maskUnits="userSpaceOnUse" x="63.75" y="63.75" width="384.5" height="384.5" id="mask-2_2_">
		<g class="st8">
			<rect id="path-1_2_" x="-0.08" y="-0.08" class="st7" width="512.67" height="512.67"/>
		</g>
	</mask>
	<g id="Group-3" class="st9">
		<g transform="translate(64.000000, 64.000000)">
			<rect id="Rectangle-5" class="st10" width="384" height="384"/>
			<path id="Rectangle-6" class="st11" d="M19,64H365c1.66,0,3,1.34,3,3V317c0,1.66-1.34,3-3,3H19c-1.66,0-3-1.34-3-3V67
				C16,65.34,17.34,64,19,64z"/>
			<path id="Rectangle-6_1_" class="st11" d="M67,16H317c1.66,0,3,1.34,3,3V365c0,1.66-1.34,3-3,3H67c-1.66,0-3-1.34-3-3V19
				C64,17.34,65.34,16,67,16z"/>
			<path id="Rectangle-6_2_" class="st11" d="M43,40H341c1.66,0,3,1.34,3,3V341c0,1.66-1.34,3-3,3H43c-1.66,0-3-1.34-3-3V43
				C40,41.34,41.34,40,43,40z"/>
			<circle id="Oval-3" class="st11" cx="192" cy="192" r="176"/>
			<circle id="Oval-3_1_" class="st11" cx="192" cy="192" r="80"/>
			<path id="Line-2" class="st12" d="M0.42,383.69L383.65,0.39"/>
			<path id="Line-2_1_" class="st12" d="M383.48,383.47L0.37,0.42"/>
			<path id="Line-3" class="st12" d="M136,0v384"/>
			<path id="Line-3_1_" class="st12" d="M192,0v384"/>
			<path id="Line-3_2_" class="st12" d="M248.08,0v384"/>
			<path id="Line-3_3_" class="st13" d="M383.73,136H0"/>
			<path id="Line-3_4_" class="st13" d="M383.73,192H0"/>
			<path id="Line-3_5_" class="st12" d="M383.73,248H0"/>
		</g>
	</g>
</g>
<g id="Acordes" class="st0">
	<circle class="st14" cx="256" cy="256" r="176"/>
	<g class="st1">
		<g>
			<path class="st15" d="M227.62,271.42c0-10.82,1.55-21.25,5.87-29.37c4.31-8.13,5.27-8.58,15.47-13.1
				c11.61-5.14,23.05-7.76,34.85-6.82c12.61,1,28.26,7.79,28.26,7.79S293.49,216,283.15,216c-10.34,0-11.37,0-27.15,0
				s-30.06,6.2-40.4,16.23c-10.34,10.03-16.73,23.89-16.73,39.19c0,6.12,7.19,9.17,14.37,9.16
				C220.43,280.57,227.62,277.51,227.62,271.42z"/>
			<path class="st15" d="M296.4,240.58c0,21.64-17.99,38.8-40.3,38.8c-25.27,0-57.22,16.63-57.22,16.63s25.58,0,57.13,0
				s57.13-24.81,57.13-55.42C313.13,228.33,296.4,228.4,296.4,240.58z"/>
		</g>
		<line class="st16" x1="176" y1="256" x2="336" y2="256"/>
	</g>
	<g class="st1">
		<g>
			<path class="st15" d="M167.6,359.42c0-21.64,17.99-38.8,40.3-38.8c25.27,0,57.22-16.63,57.22-16.63s-25.58,0-57.13,0
				s-57.13,24.81-57.13,55.42C150.87,371.67,167.6,371.6,167.6,359.42z"/>
			<path class="st15" d="M248.4,328.58c0,21.64-17.99,38.8-40.3,38.8c-25.27,0-57.22,16.63-57.22,16.63s25.58,0,57.13,0
				s57.13-24.81,57.13-55.42C265.13,316.33,248.4,316.4,248.4,328.58z"/>
		</g>
		<line class="st16" x1="128" y1="344" x2="288" y2="344"/>
	</g>
	<g class="st1">
		<g>
			<path class="st15" d="M263.6,183.42c0-21.64,17.99-38.8,40.3-38.8c25.27,0,57.22-16.63,57.22-16.63s-25.58,0-57.13,0
				s-57.13,24.81-57.13,55.42C246.87,195.67,263.6,195.6,263.6,183.42z"/>
			<path class="st15" d="M344.4,152.58c0,21.64-17.99,38.8-40.3,38.8c-25.27,0-57.22,16.63-57.22,16.63s25.58,0,57.13,0
				s57.13-24.81,57.13-55.42C361.13,140.33,344.4,140.4,344.4,152.58z"/>
		</g>
		<line class="st16" x1="224" y1="168" x2="384" y2="168"/>
	</g>
</g>
<g id="Números_de_intervalos">
	<g>
		<path class="st15" d="M279.5,80c1.1,9.11,2.02,18.21,2.86,27.32l0.32,3.41l0.16,1.71c0.03,0.67,0.05,1.38,0.04,2.08
			c-0.11,2.8-0.85,5.63-2.19,8.2c-1.34,2.56-3.24,4.89-5.62,6.68c-2.38,1.79-5.21,3.07-8.21,3.68c-1.46,0.34-3.2,0.41-4.17,0.51
			l-3.41,0.27l-6.83,0.51l-13.53,1c-2.4,0.37-4.43,1.73-5.55,3.62c-0.55,0.93-0.87,1.95-0.97,2.94c-0.06,0.5-0.02,1,0.02,1.5
			l0.18,3.26c1.05,18.21,1.95,36.42,2.69,54.62c0.33,9.1,0.75,18.21,1.02,27.31l0.82,27.31l-27.26,0.08l0.01-1.39l0.03-1.11
			c0.02-0.73,0.07-1.42,0.11-2.11c0.09-1.38,0.22-2.73,0.38-4.07c0.32-2.68,0.77-5.33,1.33-7.97c1.14-5.27,2.77-10.5,5.06-15.61
			c2.26-5.11,5.21-10.08,8.88-14.62c3.65-4.55,8.04-8.66,12.91-12.01c9.78-6.74,21.15-10.34,31.89-11.44
			c2.72-0.38,5.36-0.43,8.03-0.58c1.34-0.06,2.85-0.01,4.26-0.01c1.46,0.09,2.91,0.14,4.37,0.3c5.86,0.6,11.88,2,17.53,4.5
			c5.66,2.46,10.84,5.95,15.28,9.94c2.21,2.01,4.24,4.14,6.11,6.35c1.83,2.22,3.56,4.49,5.06,6.83c3.07,4.66,5.52,9.46,7.56,14.31
			c1.99,4.85,3.63,9.72,4.94,14.58c1.33,4.86,2.38,9.71,3.21,14.54c0.86,4.83,1.47,9.65,1.9,14.45c0.87,9.61,1.13,19.13,0.9,28.65
			c-0.08,2.38-0.19,4.76-0.34,7.16l-0.26,3.62l-0.16,1.86c-0.04,0.45-0.03,0.31-0.05,0.38c0,0.01-0.01,0-0.01,0.04l-0.01,0.26
			l-0.03,0.53c-0.16,2.68-0.41,5.15-0.73,7.65c-0.31,2.49-0.71,4.95-1.16,7.41c-1.86,9.81-4.85,19.51-9.49,28.82
			c-2.32,4.65-5.12,9.18-8.5,13.38c-3.36,4.21-7.29,8.1-11.75,11.39c-4.43,3.32-9.48,5.86-14.66,7.6c-5.18,1.73-10.53,2.79-15.75,3
			c-0.65,0.04-1.31,0.11-1.96,0.12l-1.94-0.01c-1.29-0.03-2.58-0.02-3.86-0.1c-2.58-0.28-5.12-0.39-7.68-0.94
			c-5.1-0.83-10.18-2.45-14.89-4.75c-4.71-2.3-9.09-5.28-12.79-8.86c-3.74-3.53-6.81-7.58-9.36-11.79
			c-2.55-4.22-4.55-8.65-6.09-13.16c-1.54-4.51-2.68-9.08-3.47-13.67c-0.81-4.59-1.28-9.19-1.47-13.78
			c-0.18-4.59-0.12-9.17,0.37-13.7c1.34,8.98,3.64,17.7,6.74,25.94c1.59,4.11,3.38,8.09,5.46,11.85c2.1,3.74,4.48,7.25,7.13,10.4
			c5.35,6.26,11.83,11.01,19.12,13.2l1.35,0.44c0.45,0.13,0.93,0.22,1.39,0.33c0.93,0.19,1.83,0.48,2.78,0.61l2.83,0.4
			c0.93,0.15,1.92,0.12,2.88,0.19c1.9,0.19,3.88-0.03,5.81-0.04c0.97-0.06,1.94-0.21,2.9-0.31l1.44-0.15
			c0.48-0.06,0.94-0.17,1.4-0.26c3.77-0.57,7.26-1.76,10.48-3.26c1.63-0.72,3.12-1.66,4.59-2.59c0.7-0.52,1.42-1.01,2.13-1.51
			l2-1.69c2.59-2.35,4.87-5.09,6.86-8.14c1.97-3.06,3.67-6.41,5.12-9.95c2.89-7.09,4.61-14.98,5.61-22.97
			c0.24-2,0.44-4.01,0.57-6.01c0.13-1.99,0.21-4.01,0.2-5.84l-0.01-0.32l0-0.16l0.01-0.39l0.04-1.31l0.04-1.51l0.03-3.14
			c0-2.11-0.03-4.24-0.09-6.37c-0.16-8.52-0.78-17.05-1.91-25.37c-1.17-8.31-2.66-16.49-4.99-24.12c-2.3-7.62-5.36-14.73-9.18-20.48
			c-0.94-1.45-1.98-2.75-3.02-4.01c-1.06-1.22-2.16-2.35-3.3-3.37c-2.29-2-4.71-3.59-7.34-4.69c-2.59-1.19-5.46-1.89-8.56-2.26
			c-0.77-0.1-1.58-0.11-2.37-0.19c-0.84,0.01-1.59-0.05-2.5-0.01c-1.83,0.11-3.71,0.09-5.46,0.35c-0.88,0.12-1.81,0.14-2.65,0.32
			l-2.57,0.45c-0.85,0.16-1.65,0.41-2.47,0.6c-0.84,0.18-1.61,0.45-2.4,0.7c-3.14,0.99-6.04,2.31-8.65,4
			c-2.61,1.69-4.95,3.74-7.01,6.17c-2.06,2.43-3.86,5.21-5.42,8.27c-1.56,3.06-2.79,6.42-3.72,9.93c-0.46,1.75-0.85,3.54-1.14,5.33
			c-0.14,0.89-0.27,1.78-0.37,2.65l-0.12,1.26l-0.05,0.58l-0.02,0.24c0,0.07-0.01,0.17-0.01,0.06l-27.26,0.08l0.82-27.31
			c0.27-9.1,0.68-18.21,1.02-27.31c0.74-18.21,1.65-36.42,2.69-54.62l0.2-3.56c0.11-1.78,0.39-3.55,0.89-5.26
			c0.97-3.43,2.71-6.59,4.99-9.22c4.55-5.27,11.48-8.26,18.18-8.02l26.66,1.91c3-0.05,6.15-1.53,8.22-4.19
			c1.04-1.31,1.81-2.89,2.21-4.61l0.23-1.33l0.17-1.71l0.34-3.41C277.38,98.2,278.35,89.1,279.5,80z"/>
	</g>
</g>
<g id="Terceras" class="st0">
	<g class="st1">
		<path class="st15" d="M200.42,291.72c0.34,1.84,0.57,3.67,0.91,5.48c0.37,1.81,0.62,3.63,1.02,5.42l0.56,2.69l0.63,2.67
			c0.37,1.78,0.85,3.54,1.3,5.29c1.88,7,4.21,13.79,7,20.27c2.81,6.46,6.09,12.64,9.95,18.21c3.82,5.59,8.28,10.54,13.15,14.42
			c4.9,3.82,10.24,6.43,15.51,7.25c2.63,0.44,5.28,0.48,7.87,0.1c2.58-0.39,5.11-1.15,7.59-2.26c4.94-2.27,9.61-6.04,13.72-10.65
			c2.1-2.27,4-4.84,5.8-7.51c1.83-2.65,3.48-5.5,5.01-8.44c6.16-11.77,10.06-25.21,11.91-38.95c0.96-6.88,1.38-13.88,1.51-20.88
			c0.09-7.01-0.18-14.06-1.09-21.07c-0.39-3.52-1.03-6.99-1.71-10.48c-0.78-3.45-1.63-6.91-2.73-10.28
			c-1.07-3.39-2.34-6.72-3.84-9.93c-0.72-1.63-1.56-3.18-2.38-4.76c-0.89-1.53-1.76-3.08-2.74-4.55
			c-3.86-5.92-8.69-11.24-14.46-15.11c-2.87-1.93-5.98-3.47-9.22-4.47c-3.24-0.99-6.61-1.45-9.93-1.27l-7.03,0.39l4.29-6.01
			c4.4-6.17,8.66-12.45,12.82-18.81l12.41-19.12c4.15-6.36,8.41-12.65,12.8-18.82c4.42-6.15,9-12.18,13.7-18.11l7.08,14.56
			l-13.98-0.21c-4.66-0.14-9.32-0.23-13.98-0.4c-9.32-0.34-18.64-0.77-27.96-1.39c-9.32-0.62-18.64-1.36-27.96-2.31
			c-9.32-0.98-18.64-2.08-27.96-3.69c-0.55-0.1-0.92-0.62-0.83-1.17c0.07-0.43,0.42-0.76,0.83-0.83c9.32-1.61,18.64-2.71,27.96-3.69
			c9.32-0.96,18.64-1.7,27.96-2.31c9.32-0.62,18.64-1.04,27.96-1.39c4.66-0.17,9.32-0.26,13.98-0.4l13.98-0.21l18.6-0.28
			l-11.52,14.84c-4.64,5.98-9.41,11.86-14.34,17.61c-4.95,5.74-10.04,11.36-15.24,16.91l-15.63,16.6
			c-5.19,5.55-10.28,11.18-15.22,16.92l-2.73-5.62c8.2,0.34,15.98,3.31,22.48,7.68c6.55,4.37,12.08,9.96,16.77,16.08
			c2.39,3.04,4.54,6.25,6.55,9.55c1.02,1.64,1.96,3.32,2.91,5.01c0.47,0.84,0.89,1.71,1.34,2.56c0.46,0.85,0.91,1.71,1.31,2.58
			c3.4,6.95,6.17,14.22,8.32,21.69c4.33,14.95,5.96,30.72,4.89,46.38c-1.13,15.65-4.38,31.41-11.2,46.29
			c-3.4,7.42-7.78,14.59-13.43,21.08c-5.71,6.39-12.74,12.26-21.47,15.82c-8.63,3.69-18.81,4.5-27.99,2.24
			c-4.59-1.14-8.91-2.98-12.8-5.26c-3.9-2.29-7.37-5.05-10.47-8.03c-6.13-6.03-10.86-12.91-14.47-20.1
			c-3.67-7.18-6.22-14.69-8.09-22.25c-1.76-7.59-2.88-15.25-3.14-22.89c-0.16-3.82-0.19-7.62,0.04-11.41
			c0.15-3.78,0.57-7.55,1.1-11.27c0.08-0.55,0.59-0.94,1.14-0.86c0.44,0.06,0.77,0.4,0.85,0.82L200.42,291.72z"/>
	</g>
</g>
<g id="Séptimas" class="st0">
	<g class="st1">
		<path class="st15" d="M200,128c9.34-1.17,18.68-2.16,28.02-2.98c9.34-0.84,18.68-1.58,28.02-2.22c9.34-0.65,18.68-1.21,28.02-1.72
			l14.01-0.7l14.01-0.58v16.41c-5.22,0.33-10.35,1.42-15.22,3.51c-1.23,0.48-2.42,1.1-3.62,1.67c-1.17,0.65-2.36,1.26-3.52,1.97
			c-2.32,1.38-4.58,2.93-6.75,4.65c-2.19,1.69-4.28,3.55-6.31,5.51c-2.06,1.92-4,4.02-5.92,6.14c-3.8,4.3-7.26,8.99-10.6,13.82
			c-3.31,4.84-6.35,9.94-9.19,15.18c-2.87,5.22-5.56,10.58-8.05,16.06c-2.47,5.49-4.86,11.04-7.05,16.69
			c-2.19,5.65-4.24,11.37-6.21,17.14c-7.73,23.12-13.65,47.04-18.37,71.32c-2.33,12.15-4.43,24.39-6.24,36.72
			c-1.83,12.33-3.42,24.74-5.01,37.24c-1.56-12.51-2.4-25.11-2.61-37.73c-0.2-12.63,0.12-25.29,1.1-37.94
			c1.91-25.29,6.15-50.52,13.22-75.19c1.75-6.17,3.74-12.29,5.92-18.36c2.18-6.07,4.51-12.1,7.17-18.02
			c2.64-5.93,5.48-11.79,8.61-17.54c3.18-5.72,6.6-11.35,10.4-16.8c3.77-5.46,8-10.67,12.59-15.64c4.64-4.93,9.7-9.6,15.42-13.61
			c2.83-2.03,5.82-3.9,8.96-5.57c3.11-1.7,6.42-3.12,9.84-4.29c6.81-2.38,14.17-3.59,21.45-3.34l0.62,0.02
			c4.53,0.15,8.07,3.95,7.92,8.47c-0.15,4.53-3.95,8.07-8.47,7.92l-0.06,0l-14.01-0.58l-14.01-0.7c-9.34-0.51-18.68-1.06-28.02-1.72
			c-9.34-0.65-18.68-1.39-28.02-2.22C218.68,130.16,209.34,129.17,200,128z"/>
	</g>
</g>
<g id="Principales" class="st0">
	<text transform="matrix(1 0 0 1 169.5992 384)" class="st1 st17 st18 st19">IV</text>
	<text id="IV" transform="matrix(1 0 0 1 128.0001 256.0384)" class="st1 st17 st20">I</text>
	<text transform="matrix(1 0 0 1 268.122 220.455)" class="st1 st17 st21">V</text>
</g>
<g id="Limits">
	<circle class="st22" cx="256" cy="256" r="176"/>
</g>
</svg>
